<svg width="204" height="130" viewBox="0 0 204 130" fill="none" xmlns="http://www.w3.org/2000/svg">
<path d="M0.999992 68.8958L1.00001 68.8998C1.13193 101.661 27.8207 128.514 60.6205 128.514C93.4957 128.514 120.239 101.771 120.239 68.8958V60.6205C120.239 47.8633 130.62 37.4818 143.378 37.4818C156.137 37.4818 166.516 47.8632 166.516 60.6205C166.516 64.9812 170.052 68.5172 174.413 68.5172H195.103C199.466 68.5172 203 64.9811 203 60.6205C203 27.7452 176.257 1 143.38 1C110.504 1 83.7591 27.7452 83.7591 60.6205V68.8958C83.7591 81.6548 73.3777 92.0325 60.6224 92.0325C47.8651 92.0325 37.4838 81.6547 37.4838 68.8958C37.4838 64.535 33.9478 60.999 29.587 60.999H8.89675H8.89624C4.53631 61.0012 1 64.5345 0.999992 68.8958Z" fill="url(#paint0_linear_2_5)" stroke="white" stroke-width="2"/>
<defs>
<linearGradient id="paint0_linear_2_5" x1="102" y1="2" x2="102" y2="127.514" gradientUnits="userSpaceOnUse">
<stop offset="0.244792" stop-color="#FC8C08"/>
<stop offset="1" stop-color="#82540F" stop-opacity="0.59"/>
</linearGradient>
</defs>
</svg>
